<?xml version="1.0" encoding="UTF-8"?>
<svg id="Layer_2" data-name="Layer 2" xmlns="http://www.w3.org/2000/svg" viewBox="0 0 1770.64 856.63">
  <defs>
    <style>
      .cls-1 {
        fill: #8854C0;
      }
    </style>
  </defs>
  <g id="Layer_1-2" data-name="Layer 1">
    <g>
      <g>
        <path class="cls-1" d="M239.52,855.4c-9.54-.36-18.48-1.79-27.35-3.37l-14.24-2.53c-5.56-.99-11.29-2.42-16.82-3.84-65.52-16.8-113.55-54.24-145.36-114.6-11-20.87-19.81-42.07-26.03-64.76l-5.6-20.44-2.54-11.54c-.82-3.73-1.53-6.23-1.57-10.45,7.18.08,12.58,1.49,19.12,2.64l16.99,3.01,14.33,2.58,14.83,2.53,10.5,1.92,17.08,2.92,16.73,3c1.93.35,4.47,1.14,6.32,1.28,9.94.72,22.38,3.99,34.17,5.73,5.34.79,9.84,1.52,15.12,3.05,3.09.89,8.22-.24,10.89,2.17,5.48,4.95,6.53,31.64,38.84,43.3,5.46,1.97,25.91,5.66,31.01,5.68l65.03.21c1.83,0,5.32-1.35,7.16-1.59,19.14-2.55,41.22-8.88,46.07-30.37,3.48-15.44-3.11-31.03-16.34-40.06-10.44-7.13-29.93-13.53-42.66-16.48l-10.62-2.46-17.47-3.66-10.54-2.31-13.22-2.92-11.18-2.7-12.92-3.2-9.28-2.47-30.82-9.09-8.37-2.68-17.65-6.37c-23-8.31-44.78-18.87-64.77-33-11.29-7.98-20.3-16.61-28.55-27.56-14.44-19.16-26.35-39.81-32.24-63.31l-2.82-11.25c-5.27-21.01-5.04-61.94-.06-83.09l3.24-13.75c6.56-27.84,20.5-52.08,38.73-74.12,26.95-32.59,62.83-55.69,103.15-67.59l7.95-2.35,10.44-2.7c3.91-1.01,7.7-2.22,11.75-2.83l8.47-1.29c5.99-.91,12.67-2.69,18.7-3.12l32.82-2.31c14.31-1.01,28.55-.67,42.68.05,6.11.31,12.23,1.45,18.28,1.42,7.33-.03,13.49,1.21,20.53,2.43l13.83,2.39c5.28.91,9.95,2.31,15.18,3.63,26.2,6.59,50.56,17.1,73.27,31.99,38.98,25.55,69.9,66.35,86.68,109.23l2.43,6.21c-3.28,3.69-8.09,3.78-12.31,4.98l-9.28,2.64-11.02,3.14-10.73,3.08-30.43,8.57-8.75,2.41-21.13,5.92-9.1,2.56-29.92,8.44c-4.58,1.29-9.09,2.64-14.04,3.34-2-2.2-3.83-5.19-5.06-7.91-15.71-34.69-47.63-48.4-84.11-50.3-14.3-.75-27.11-.65-41.11,2.08-14.29,2.79-29.76,11.97-33.12,27.07-1.27,5.72-1.18,13.09-.19,19.05,3.57,21.47,33.3,29.46,51.59,34.12l9.36,2.38,13.93,3.19,12.04,2.77,13.23,2.94,9.62,2.3,13.75,3.29,12.25,2.94,9.21,2.41,12.94,3.41,10.03,2.69,9.66,2.59,17.65,5.4,16.44,5.49c16.18,5.4,30.99,11.46,45.67,21.5,35.64,24.38,61.94,60.46,73.51,102.08,1.46,5.26,4.98,21.77,5.26,26.61l.93,16.09c.46,7.98.46,16.02.04,24.02l-.94,18.07c-.27,5.24-1.84,11.37-3.13,16.51l-2.42,9.69c-9.91,39.66-33.19,73.2-64.57,99.43-29.02,24.26-62.47,41.85-99.06,51.5l-14.42,3.8c-3.65.96-7.61,1.79-11.35,2.45l-15.26,2.68c-9.01,1.58-18.23,3.08-27.52,3.45l-20.48.81c-13.06.51-26.01.48-39.1-.02l-21.9-.84Z"/>
        <g>
          <path class="cls-1" d="M741.93,852.18h-31.89s-9.13.03-9.13.03c-13.3.03-26.28-.46-39.44.18-9.46.46-18.51.53-27.94,0-10.82-.61-21.46-.46-32.38-.25-1.51.03-3.1.4-3.83-.17s-1.41-3.13-1.29-4.13l1.37-10.85,2.23-15.88c.97-6.92,2.34-13.21,2.68-20.25.17-3.54.68-6.92,1.16-10.72l50.84-62.83,12.09-14.99,21.81-26.37,12.2,14.51,17.89,22.04,20.93,26.11,26.03,31.94,6.71,8.32c2.97,3.68,6.21,7.34,8.52,11.52,1.98,3.58.82,9.44,1.76,13.3,1.67,6.89,2.44,13.15,3.22,20.13.67,6,2.15,11.58,1.45,18.04l-28.59.35-16.4-.04Z"/>
          <path class="cls-1" d="M730.65,43.6c-4.47-1.17-9.55-1.55-14.07-2.44-12.39-2.42-45.11-2.45-57.47-.31l-15.71,2.72c-2.9.5-6.25,1.54-9.43,2.37-37.89,9.86-78.59,31.13-107.65,58.85l-28.06-12.25c-3.92-1.71-7.13-2.56-10.99-5.87,6.6-9,13.03-16.08,21.18-23.5,38.81-35.34,88.41-55.25,140.59-61.37l14.92-1.75L710.03,0c3.79,0,8.29,1.42,12.04,1.7,5.88.45,11.38,1.09,16.92,2.2l12.73,2.53c3.06.61,6.58,1.5,9.54,2.38l10.04,2.98c30.35,9,57.1,24.36,81.35,44.42,11.42,9.45,21.22,20.12,30.07,31.83.94,1.25,3.51,5.13,1.54,6.01l-31.25,13.9c-4.02,1.79-5.43-.56-8.24-2.86l-14.87-12.17c-25.29-20.71-57.55-38.38-89.24-46.69l-10.02-2.63Z"/>
          <path class="cls-1" d="M704.92,105.49c-16.95-.69-35.96-.91-52.08,3.29l-14.26,3.71c-23.81,6.2-45.1,18.43-64.51,33.16l-16.28-7.66c-5.29-2.49-10.09-4.67-15.76-7.92,18.4-28.66,57.23-47.14,89.63-54.46l10.07-2.28c6.85-1.55,13.17-2.05,20.29-2.79,18.21-1.89,36.2-3.53,54.58-1.06l15.28,2.05c3.99.54,8.68,1.97,12.63,3.08l10.94,3.08c1.64.46,3.82,1.33,5.72,2.04,29.49,11.01,56.2,27.86,78.47,50.63l-31.98,15.71c-23.85-16.63-45.54-29.07-74.13-36l-10.5-2.54c-6-1.45-11.79-1.77-18.11-2.03Z"/>
          <path class="cls-1" d="M707.35,652.58l-19.1,23.14-44.04-53.97c-5.49-6.72-11.25-12.8-15.94-20.18-3.01-4.73,1.44-12.71,4.72-16.71l41.47-50.56,14.69-18,44.37,53.85,17.3,20.72c2.39,2.86,2.57,5.34.3,8.09l-20.82,25.22-12.95,16.04-10,12.35Z"/>
          <path class="cls-1" d="M718.37,171.25l-8.01-1.78c-25.14-5.59-60.12,3.43-82.13,16.59-3.26,1.95-6.18,2.83-9.71,1.27l-30.74-13.54c-1.16-.51-2.95-1.52-2.87-2.46.42-5.04,16.19-17.33,22.62-20.94,9.62-5.4,19.11-9.44,29.65-12.4,7.89-2.22,28.2-6,35.87-6.57,12.63-.94,25.15-.84,37.75,0,3.8.26,25.78,4.66,29.82,5.98l8.35,2.72c15.4,5.03,39.72,17.28,51.22,29.53-4.9,2.58-9.02,4.59-13.64,6.52l-7.05,2.95-11.32,4.9c-4.19,1.82-8.64,3.35-13.5,5.06-11.04-7.86-22.49-14.77-36.3-17.84Z"/>
          <path class="cls-1" d="M773.47,747.26c.57,4.62,2.11,9.35,2.28,13.52.29,7.34.87,13.46,2.96,20.63.34,1.16-.46,2.91-1.75,3.47l-54.83-67.05-11.69-14.42-10.24-12.72c-2.66-3.3-5.03-6.08-7.82-10.1l47.61-58.7c3.54-4.36,6.93-8.5,10.19-13.01.65-.91,2.39-2.05,3.34-2.07,1.14-.03,2.47,2.73,2.4,3.91-.46,8.14,1.22,14.76,2.31,22.39l3.12,21.83,2.77,20.38c.83,6.11,1.8,12.45,2.49,18.68.74,6.69,1.14,13.03,2.55,19.54,1.07,4.9,1.43,10.14,2.07,15.35l2.27,18.38Z"/>
          <path class="cls-1" d="M608.55,750.97l1.99-13.55,1.98-15.62c.94-7.42.92-14.1,3.04-21.43.55-1.9.31-5.28.53-7.57.98-9.96,1.97-19.64,3.78-29.32,1.31-7,1.76-13.49,2.6-20.66l2.92-24.64c.26-2.22,1.41-5.17,3.56-5.48l18.79,23.23,34.28,41.83c1.25,1.52,1.64,3.9.24,5.62l-71.26,87.45c-1.45,1.78-2.95,2.92-4.85,3.73l2.38-23.6Z"/>
          <path class="cls-1" d="M707.09,487.56l-17.82,21.36-15.63-18.71-26.36-31.75c-.28-3.52-.17-8.55.27-11.96l41.84-46.88,12.55,14.25,18.92,21.11,11.06,12.82c1.38,1.59,1.99,7.02.65,8.66l-25.48,31.11Z"/>
          <path class="cls-1" d="M698.18,297.49c-3.08,3.6-5.93,6.75-9.17,9.69l-17.6-19.81c-.55-2.09-.48-5.88-.08-8.25l2.47-14.91,2.3-10.86c-7.52-4.52-12.19-10.3-14.89-17.73-2.69-7.43-2.67-13.01.02-20.66,5.18-14.78,21.32-24.4,37.12-20.27,10.71,2.8,19.15,11.04,22.89,21.98,1.31,3.85,1.03,10.7.41,15.11-1.39,9.86-8.8,16.03-16.05,21.76-2.1,3.68.43,8.74.86,12.64l2.1,19.2-10.36,12.11Z"/>
          <path class="cls-1" d="M741.71,508.7c.39,13.91,3.44,23.69,4.94,39.15.71,7.28,1.43,13.95,3.18,21,1.1,4.41,1.93,8.76-.45,13.72l-57.11-69.74,42.47-51.41,2.69,20.11c.86,4.06,1.35,7.97,1.8,12.26.51,4.87,2.33,10.12,2.47,14.92Z"/>
          <path class="cls-1" d="M637.24,572.63c-2.1,2.57-3.26,4.85-6.51,5.61l2.03-17.43c.71-6.12,1.2-11.43,2.74-17.55.88-3.5.38-8.35.92-12.12l3.39-23.89c1.17-8.22,1.76-16.04,2.75-24.31l1.8-15.08c.13-1.05,1.22-2.82,2.56-3.17l33.95,41.28,4.54,5.55c.82,1.01-.94,3.67-1.9,4.84l-15.85,19.29-13.56,16.33-16.87,20.66Z"/>
          <path class="cls-1" d="M721.23,356.9l-31.72,35.75-30.4-33.85c-2.43-6.52,2.62-14.09,6.84-18.76l23.12-25.58c3.61,3.34,6.64,6.91,9.8,10.47l19.37,21.76,2.99,10.22Z"/>
          <path class="cls-1" d="M731.47,432.84l.51,3.48c.11.77-1.71,1.87-2.43,1.55s-1.67-1.2-2.43-2.07l-19.68-22.33-15.32-16.92,28.52-32.16c1.9,6.28,3.09,12.21,3.92,18.54l1.76,13.35,2.06,17.58,3.08,18.99Z"/>
          <path class="cls-1" d="M670.52,414.14l-17.99,20.3c-.58.65-2.18,1.38-2.95,1.35s-.18-2.4-.07-3.3l3.1-27.6c.78-6.97,1.61-13.23,3.02-20.13,1.13-5.55-.31-11.97,2.03-17.5.54-1.28,3.85.93,4.84,2.05l9.36,10.66,10.83,12.34c.96,1.1,2.33,2.94,2.44,4.08s-1.56,3.05-2.49,4.09l-12.12,13.66Z"/>
          <path class="cls-1" d="M715.46,324.22c-.06-.38,2.49,13.71-.23,11.7-.56-.41-1.57-1.33-2.26-2.1l-20.79-22.97,14.95-16.99,1.52-1.85c.41-.5,1.86,1.33,1.96,1.99l1.72,11.04,3.12,19.2Z"/>
          <path class="cls-1" d="M663.61,336.73c-3.87-3.74-.5-6.84.05-10.21l2.91-18.02,1.76-14.27c1.06-.68,4.02.31,4.83,1.26l11.68,13.87c1.24,1.47-1.82,4.91-2.97,6.25l-18.26,21.12Z"/>
        </g>
      </g>
      <g>
        <path class="cls-1" d="M1489.77,591.79l-.13,27.81-.17,37.26-.21,21.94.08,17.15,163.13-.46,63.35-.39c2.94-.02,4.36,2.39,5.06,4.62l3.62,11.57,4.13,12.65,2.47,7.45,9.87,29.36,3.17,10.01,6.02,17.88,13.48,40.65c2.63,7.69,5.45,14.85,7,23.47l-470.37-.08-.11-644.58c0-3.2.95-4.79,4.05-5.15h462.41c2.8.01,3.32,3.6,2.68,5.35l-23.72,65.32c-1.44,3.25-2.27,6.23-3.48,9.6l-25.44,70.53-226.49.02c-1.56,2.71-.82,5.52-.89,8.55-.22,10.34-.51,20.55.11,30.91.82,13.88-.43,14.2-.29,27.61l.19,17.96c.03,2.86-.12,5.21.96,8.24l227.45.02.12,139.72c0,3.26-1.61,4.99-4.85,4.87l-84.85-.29-14.27-.04c-20.34-.06-40.31.05-60.55-.12l-26.93-.22c-8.03-.07-15.9-.24-23.75.16l-12.85.66Z"/>
        <path class="cls-1" d="M1133.7,852.72l-25.37-.18-10.75-.19-11.76-.2c-6.03-.1-11.64.01-17.93.35-1.46.08-4.22-.47-5.88-.45l-47.4.39c-10.17.08-19.91.22-30.05-.03l-31.58-.77v-491.81s-77.91-.17-77.91-.17c-1.24,0-3.82-.39-4.12-1.34l-1.33-4.15-5.9-19.09-3.3-10.71-10.59-34.51-6.36-20.74-2.8-9.1-2.55-8.43-2.57-8.49-5.36-17.32-3.42-10.77c-1.12-3.52-1.77-6.36-1.91-11l110.92-.51,327.37-.61c1.35,3.9.25,6.35-.63,9.49l-3.69,13.12-2.68,9.53-2.48,8.31-3.14,11.17-3.07,10.62-2.62,9.43-2.74,9.48-3.3,11.45-2.44,8.87-2.91,9.69-2.73,10.55-2.95,9.99-2.92,9.92-4.48,15.13-84.54.1-.34,158.79-.21,297.62.66,29.86c.03,1.51-1.05,4.56-2.22,6.7Z"/>
      </g>
    </g>
  </g>
</svg>